<svg width="21" height="24" viewBox="0 0 21 24" fill="none" xmlns="http://www.w3.org/2000/svg">
<path d="M20 4V20.5996L18.2998 18.9004C18.5165 18.5337 18.6875 18.15 18.8125 17.75C18.9375 17.35 19 16.9333 19 16.5C19 15.25 18.5625 14.1875 17.6875 13.3125C16.8125 12.4375 15.75 12 14.5 12C13.25 12 12.1875 12.4375 11.3125 13.3125C10.4375 14.1875 10 15.25 10 16.5C10 17.75 10.4375 18.8125 11.3125 19.6875C12.1875 20.5625 13.25 21 14.5 21C14.9333 21 15.35 20.9375 15.75 20.8125C16.15 20.6875 16.5337 20.5165 16.9004 20.2998L17.9248 21.3242L10 24L0 20.625V4L10 0.5L20 4ZM21 21.5996L19.5996 23L17.9248 21.3242L20 20.625V20.5996L21 21.5996ZM10 3C8.76674 3 7.60431 3.10419 6.5127 3.3125C5.42121 3.5208 4.46697 3.80822 3.65039 4.1748C2.83378 4.54145 2.18788 4.9669 1.71289 5.4502C1.23789 5.93353 1 6.45 1 7V17C1 17.55 1.22923 18.0665 1.6875 18.5498C2.14583 19.0331 2.77083 19.4542 3.5625 19.8125C4.3541 20.1708 5.28741 20.4538 6.3623 20.6621C7.43725 20.8704 8.58321 20.9833 9.7998 21C9.51656 20.7001 9.26642 20.3753 9.0498 20.0254C8.83314 19.6754 8.64128 19.3081 8.47461 18.9248C7.15811 18.7915 5.9747 18.5414 4.9248 18.1748C3.87494 17.8082 3.23332 17.4166 3 17V14.5254C3.63327 14.892 4.37909 15.1837 5.2373 15.4004C6.09564 15.6171 7.02539 15.7837 8.02539 15.9004C8.05872 15.5004 8.11686 15.1375 8.2002 14.8125C8.28353 14.4875 8.39206 14.2002 8.52539 13.9502C7.50876 13.8669 6.49997 13.6837 5.5 13.4004C4.5 13.1171 3.66667 12.6665 3 12.0498V9.52539C3.84997 10.0087 4.87527 10.375 6.0752 10.625C7.27514 10.875 8.58341 11 10 11C11.2333 11 12.3957 10.8958 13.4873 10.6875C14.5788 10.4792 15.533 10.1918 16.3496 9.8252C17.1662 9.45855 17.8121 9.0331 18.2871 8.5498C18.7621 8.06647 19 7.55 19 7C19 6.45 18.7621 5.93353 18.2871 5.4502C17.8121 4.9669 17.1662 4.54145 16.3496 4.1748C15.533 3.80822 14.5788 3.5208 13.4873 3.3125C12.3957 3.10419 11.2333 3 10 3ZM14.5 14C15.2 14 15.7921 14.2413 16.2754 14.7246C16.7587 15.2079 17 15.8 17 16.5C17 17.2 16.7587 17.7921 16.2754 18.2754C15.7921 18.7587 15.2 19 14.5 19C13.8 19 13.2079 18.7587 12.7246 18.2754C12.2413 17.7921 12 17.2 12 16.5C12 15.8 12.2413 15.2079 12.7246 14.7246C13.2079 14.2413 13.8 14 14.5 14ZM10 5C11.5 5 12.9957 5.21707 14.4873 5.65039C15.979 6.08372 16.8167 6.54206 17 7.02539C16.8164 7.49194 15.9621 7.94177 14.4375 8.375C12.9125 8.80833 11.4333 9.02539 10 9.02539C8.56667 9.02539 7.10397 8.8127 5.6123 8.3877C4.12103 7.9628 3.2502 7.50859 3 7.02539C3.23331 6.52544 4.07903 6.06266 5.53711 5.6377C6.99544 5.2127 8.48333 5 10 5Z" fill="url(#paint0_linear_59_66)"/>
<defs>
<linearGradient id="paint0_linear_59_66" x1="-9.1875" y1="-6.46296" x2="29.9881" y2="31.1706" gradientUnits="userSpaceOnUse">
<stop offset="0.158249" stop-color="#AD44BE"/>
<stop offset="0.790882" stop-color="#42428F"/>
</linearGradient>
</defs>
</svg>
